<mxfile host="app.diagrams.net" agent="Mozilla/5.0 (X11; Linux x86_64; rv:132.0) Gecko/20100101 Firefox/132.0" version="24.8.6">
  <diagram name="Page-1" id="o9ByDtuTa3kYyDPkUAcs">
    <mxGraphModel dx="2227" dy="786" grid="1" gridSize="10" guides="1" tooltips="1" connect="1" arrows="1" fold="1" page="1" pageScale="1" pageWidth="850" pageHeight="1100" math="0" shadow="0">
      <root>
        <mxCell id="0" />
        <mxCell id="1" parent="0" />
        <mxCell id="Iorur7sbH_eFIdstVS2S-5" value="&lt;div&gt;set_game:&lt;/div&gt;&lt;div align=&quot;left&quot;&gt;&lt;ol&gt;&lt;li&gt;Prepare a deck of shuffled cards&lt;/li&gt;&lt;li&gt;Give 2 cards from the deck to each player&lt;/li&gt;&lt;li&gt;Draws flop&lt;br&gt;&lt;/li&gt;&lt;/ol&gt;&lt;/div&gt;" style="text;html=1;align=center;verticalAlign=middle;whiteSpace=wrap;rounded=0;" vertex="1" parent="1">
          <mxGeometry x="-25" y="307" width="150" height="140" as="geometry" />
        </mxCell>
        <mxCell id="Iorur7sbH_eFIdstVS2S-12" value="&lt;div&gt;set_play&lt;/div&gt;&lt;div align=&quot;left&quot;&gt;&lt;ol&gt;&lt;li&gt;Decides to bet, pass or call&lt;br&gt;&lt;/li&gt;&lt;/ol&gt;&lt;/div&gt;" style="text;html=1;align=center;verticalAlign=middle;whiteSpace=wrap;rounded=0;" vertex="1" parent="1">
          <mxGeometry x="-20" y="467" width="140" height="30" as="geometry" />
        </mxCell>
        <mxCell id="Iorur7sbH_eFIdstVS2S-33" value="set_game" style="edgeStyle=orthogonalEdgeStyle;rounded=0;orthogonalLoop=1;jettySize=auto;html=1;curved=0;" edge="1" parent="1">
          <mxGeometry relative="1" as="geometry">
            <mxPoint x="239.5" y="318" as="sourcePoint" />
            <mxPoint x="819.5" y="318" as="targetPoint" />
          </mxGeometry>
        </mxCell>
        <mxCell id="Iorur7sbH_eFIdstVS2S-35" value="Asks to play" style="edgeStyle=orthogonalEdgeStyle;rounded=0;orthogonalLoop=1;jettySize=auto;html=1;curved=0;" edge="1" parent="1">
          <mxGeometry relative="1" as="geometry">
            <mxPoint x="239.5" y="354" as="sourcePoint" />
            <mxPoint x="379.5" y="354" as="targetPoint" />
          </mxGeometry>
        </mxCell>
        <mxCell id="Iorur7sbH_eFIdstVS2S-47" value="draw(&#39;turn&#39;)" style="edgeStyle=orthogonalEdgeStyle;rounded=0;orthogonalLoop=1;jettySize=auto;html=1;curved=0;" edge="1" parent="1">
          <mxGeometry relative="1" as="geometry">
            <mxPoint x="239.5" y="520" as="sourcePoint" />
            <mxPoint x="819.5" y="520" as="targetPoint" />
          </mxGeometry>
        </mxCell>
        <mxCell id="Iorur7sbH_eFIdstVS2S-27" value="game_master" style="shape=umlLifeline;perimeter=lifelinePerimeter;whiteSpace=wrap;html=1;container=1;dropTarget=0;collapsible=0;recursiveResize=0;outlineConnect=0;portConstraint=eastwest;newEdgeStyle={&quot;curved&quot;:0,&quot;rounded&quot;:0};" vertex="1" parent="1">
          <mxGeometry x="190" y="250" width="100" height="700" as="geometry" />
        </mxCell>
        <mxCell id="Iorur7sbH_eFIdstVS2S-46" value="" style="html=1;points=[[0,0,0,0,5],[0,1,0,0,-5],[1,0,0,0,5],[1,1,0,0,-5]];perimeter=orthogonalPerimeter;outlineConnect=0;targetShapes=umlLifeline;portConstraint=eastwest;newEdgeStyle={&quot;curved&quot;:0,&quot;rounded&quot;:0};" vertex="1" parent="Iorur7sbH_eFIdstVS2S-27">
          <mxGeometry x="45" y="230" width="10" height="40" as="geometry" />
        </mxCell>
        <mxCell id="Iorur7sbH_eFIdstVS2S-36" value="set_play" style="edgeStyle=orthogonalEdgeStyle;rounded=0;orthogonalLoop=1;jettySize=auto;html=1;curved=0;" edge="1" parent="1">
          <mxGeometry relative="1" as="geometry">
            <mxPoint x="379.5" y="355" as="sourcePoint" />
            <mxPoint x="819.5" y="355" as="targetPoint" />
          </mxGeometry>
        </mxCell>
        <mxCell id="Iorur7sbH_eFIdstVS2S-37" value="Asks to play" style="edgeStyle=orthogonalEdgeStyle;rounded=0;orthogonalLoop=1;jettySize=auto;html=1;curved=0;" edge="1" parent="1">
          <mxGeometry relative="1" as="geometry">
            <mxPoint x="379.5" y="400" as="sourcePoint" />
            <mxPoint x="519.5" y="400" as="targetPoint" />
            <mxPoint as="offset" />
          </mxGeometry>
        </mxCell>
        <mxCell id="Iorur7sbH_eFIdstVS2S-28" value="player_1" style="shape=umlLifeline;perimeter=lifelinePerimeter;whiteSpace=wrap;html=1;container=1;dropTarget=0;collapsible=0;recursiveResize=0;outlineConnect=0;portConstraint=eastwest;newEdgeStyle={&quot;curved&quot;:0,&quot;rounded&quot;:0};" vertex="1" parent="1">
          <mxGeometry x="330" y="250" width="100" height="700" as="geometry" />
        </mxCell>
        <mxCell id="Iorur7sbH_eFIdstVS2S-38" value="" style="html=1;points=[[0,0,0,0,5],[0,1,0,0,-5],[1,0,0,0,5],[1,1,0,0,-5]];perimeter=orthogonalPerimeter;outlineConnect=0;targetShapes=umlLifeline;portConstraint=eastwest;newEdgeStyle={&quot;curved&quot;:0,&quot;rounded&quot;:0};" vertex="1" parent="Iorur7sbH_eFIdstVS2S-28">
          <mxGeometry x="45" y="104" width="10" height="46" as="geometry" />
        </mxCell>
        <mxCell id="Iorur7sbH_eFIdstVS2S-39" value="set_play" style="edgeStyle=orthogonalEdgeStyle;rounded=0;orthogonalLoop=1;jettySize=auto;html=1;curved=0;" edge="1" parent="1">
          <mxGeometry relative="1" as="geometry">
            <mxPoint x="519.5" y="401" as="sourcePoint" />
            <mxPoint x="819.5" y="401" as="targetPoint" />
          </mxGeometry>
        </mxCell>
        <mxCell id="Iorur7sbH_eFIdstVS2S-41" value="Asks to play" style="edgeStyle=orthogonalEdgeStyle;rounded=0;orthogonalLoop=1;jettySize=auto;html=1;curved=0;" edge="1" parent="1">
          <mxGeometry relative="1" as="geometry">
            <mxPoint x="519.5" y="440" as="sourcePoint" />
            <mxPoint x="669.5" y="440" as="targetPoint" />
          </mxGeometry>
        </mxCell>
        <mxCell id="Iorur7sbH_eFIdstVS2S-29" value="player_2" style="shape=umlLifeline;perimeter=lifelinePerimeter;whiteSpace=wrap;html=1;container=1;dropTarget=0;collapsible=0;recursiveResize=0;outlineConnect=0;portConstraint=eastwest;newEdgeStyle={&quot;curved&quot;:0,&quot;rounded&quot;:0};" vertex="1" parent="1">
          <mxGeometry x="470" y="250" width="100" height="700" as="geometry" />
        </mxCell>
        <mxCell id="Iorur7sbH_eFIdstVS2S-40" value="" style="html=1;points=[[0,0,0,0,5],[0,1,0,0,-5],[1,0,0,0,5],[1,1,0,0,-5]];perimeter=orthogonalPerimeter;outlineConnect=0;targetShapes=umlLifeline;portConstraint=eastwest;newEdgeStyle={&quot;curved&quot;:0,&quot;rounded&quot;:0};" vertex="1" parent="Iorur7sbH_eFIdstVS2S-29">
          <mxGeometry x="45" y="150" width="10" height="40" as="geometry" />
        </mxCell>
        <mxCell id="Iorur7sbH_eFIdstVS2S-42" value="set_play" style="edgeStyle=orthogonalEdgeStyle;rounded=0;orthogonalLoop=1;jettySize=auto;html=1;curved=0;" edge="1" parent="1">
          <mxGeometry relative="1" as="geometry">
            <mxPoint x="669.5" y="440" as="sourcePoint" />
            <mxPoint x="819.5" y="440" as="targetPoint" />
          </mxGeometry>
        </mxCell>
        <mxCell id="Iorur7sbH_eFIdstVS2S-44" value="Asks to continue" style="edgeStyle=orthogonalEdgeStyle;rounded=0;orthogonalLoop=1;jettySize=auto;html=1;curved=0;" edge="1" parent="1">
          <mxGeometry relative="1" as="geometry">
            <mxPoint x="669.5" y="480" as="sourcePoint" />
            <mxPoint x="239.5" y="480" as="targetPoint" />
          </mxGeometry>
        </mxCell>
        <mxCell id="Iorur7sbH_eFIdstVS2S-30" value="player_3" style="shape=umlLifeline;perimeter=lifelinePerimeter;whiteSpace=wrap;html=1;container=1;dropTarget=0;collapsible=0;recursiveResize=0;outlineConnect=0;portConstraint=eastwest;newEdgeStyle={&quot;curved&quot;:0,&quot;rounded&quot;:0};" vertex="1" parent="1">
          <mxGeometry x="620" y="250" width="100" height="700" as="geometry" />
        </mxCell>
        <mxCell id="Iorur7sbH_eFIdstVS2S-43" value="" style="html=1;points=[[0,0,0,0,5],[0,1,0,0,-5],[1,0,0,0,5],[1,1,0,0,-5]];perimeter=orthogonalPerimeter;outlineConnect=0;targetShapes=umlLifeline;portConstraint=eastwest;newEdgeStyle={&quot;curved&quot;:0,&quot;rounded&quot;:0};" vertex="1" parent="Iorur7sbH_eFIdstVS2S-30">
          <mxGeometry x="45" y="190" width="10" height="40" as="geometry" />
        </mxCell>
        <mxCell id="Iorur7sbH_eFIdstVS2S-61" value="" style="html=1;points=[[0,0,0,0,5],[0,1,0,0,-5],[1,0,0,0,5],[1,1,0,0,-5]];perimeter=orthogonalPerimeter;outlineConnect=0;targetShapes=umlLifeline;portConstraint=eastwest;newEdgeStyle={&quot;curved&quot;:0,&quot;rounded&quot;:0};" vertex="1" parent="Iorur7sbH_eFIdstVS2S-30">
          <mxGeometry x="45" y="397" width="10" height="40" as="geometry" />
        </mxCell>
        <mxCell id="Iorur7sbH_eFIdstVS2S-32" value="game_state" style="shape=umlLifeline;perimeter=lifelinePerimeter;whiteSpace=wrap;html=1;container=1;dropTarget=0;collapsible=0;recursiveResize=0;outlineConnect=0;portConstraint=eastwest;newEdgeStyle={&quot;curved&quot;:0,&quot;rounded&quot;:0};" vertex="1" parent="1">
          <mxGeometry x="770" y="250" width="100" height="700" as="geometry" />
        </mxCell>
        <mxCell id="Iorur7sbH_eFIdstVS2S-48" value="Asks to play" style="edgeStyle=orthogonalEdgeStyle;rounded=0;orthogonalLoop=1;jettySize=auto;html=1;curved=0;" edge="1" parent="1">
          <mxGeometry relative="1" as="geometry">
            <mxPoint x="240.5" y="561" as="sourcePoint" />
            <mxPoint x="380.5" y="561" as="targetPoint" />
          </mxGeometry>
        </mxCell>
        <mxCell id="Iorur7sbH_eFIdstVS2S-49" value="set_play" style="edgeStyle=orthogonalEdgeStyle;rounded=0;orthogonalLoop=1;jettySize=auto;html=1;curved=0;" edge="1" parent="1">
          <mxGeometry relative="1" as="geometry">
            <mxPoint x="380.5" y="562" as="sourcePoint" />
            <mxPoint x="820.5" y="562" as="targetPoint" />
          </mxGeometry>
        </mxCell>
        <mxCell id="Iorur7sbH_eFIdstVS2S-50" value="Asks to play" style="edgeStyle=orthogonalEdgeStyle;rounded=0;orthogonalLoop=1;jettySize=auto;html=1;curved=0;" edge="1" parent="1">
          <mxGeometry relative="1" as="geometry">
            <mxPoint x="380.5" y="607" as="sourcePoint" />
            <mxPoint x="520.5" y="607" as="targetPoint" />
            <mxPoint as="offset" />
          </mxGeometry>
        </mxCell>
        <mxCell id="Iorur7sbH_eFIdstVS2S-51" value="" style="html=1;points=[[0,0,0,0,5],[0,1,0,0,-5],[1,0,0,0,5],[1,1,0,0,-5]];perimeter=orthogonalPerimeter;outlineConnect=0;targetShapes=umlLifeline;portConstraint=eastwest;newEdgeStyle={&quot;curved&quot;:0,&quot;rounded&quot;:0};" vertex="1" parent="1">
          <mxGeometry x="376" y="561" width="10" height="46" as="geometry" />
        </mxCell>
        <mxCell id="Iorur7sbH_eFIdstVS2S-52" value="set_play" style="edgeStyle=orthogonalEdgeStyle;rounded=0;orthogonalLoop=1;jettySize=auto;html=1;curved=0;" edge="1" parent="1">
          <mxGeometry relative="1" as="geometry">
            <mxPoint x="520.5" y="608" as="sourcePoint" />
            <mxPoint x="820.5" y="608" as="targetPoint" />
          </mxGeometry>
        </mxCell>
        <mxCell id="Iorur7sbH_eFIdstVS2S-53" value="Asks to play" style="edgeStyle=orthogonalEdgeStyle;rounded=0;orthogonalLoop=1;jettySize=auto;html=1;curved=0;" edge="1" parent="1">
          <mxGeometry relative="1" as="geometry">
            <mxPoint x="520.5" y="647" as="sourcePoint" />
            <mxPoint x="670.5" y="647" as="targetPoint" />
          </mxGeometry>
        </mxCell>
        <mxCell id="Iorur7sbH_eFIdstVS2S-54" value="" style="html=1;points=[[0,0,0,0,5],[0,1,0,0,-5],[1,0,0,0,5],[1,1,0,0,-5]];perimeter=orthogonalPerimeter;outlineConnect=0;targetShapes=umlLifeline;portConstraint=eastwest;newEdgeStyle={&quot;curved&quot;:0,&quot;rounded&quot;:0};" vertex="1" parent="1">
          <mxGeometry x="516" y="607" width="10" height="40" as="geometry" />
        </mxCell>
        <mxCell id="Iorur7sbH_eFIdstVS2S-55" value="set_play" style="edgeStyle=orthogonalEdgeStyle;rounded=0;orthogonalLoop=1;jettySize=auto;html=1;curved=0;" edge="1" parent="1">
          <mxGeometry relative="1" as="geometry">
            <mxPoint x="670.5" y="647" as="sourcePoint" />
            <mxPoint x="820.5" y="647" as="targetPoint" />
          </mxGeometry>
        </mxCell>
        <mxCell id="Iorur7sbH_eFIdstVS2S-58" value="draw(&#39;river&#39;)" style="edgeStyle=orthogonalEdgeStyle;rounded=0;orthogonalLoop=1;jettySize=auto;html=1;curved=0;" edge="1" parent="1">
          <mxGeometry relative="1" as="geometry">
            <mxPoint x="239.5" y="727" as="sourcePoint" />
            <mxPoint x="819.5" y="727" as="targetPoint" />
          </mxGeometry>
        </mxCell>
        <mxCell id="Iorur7sbH_eFIdstVS2S-59" value="" style="html=1;points=[[0,0,0,0,5],[0,1,0,0,-5],[1,0,0,0,5],[1,1,0,0,-5]];perimeter=orthogonalPerimeter;outlineConnect=0;targetShapes=umlLifeline;portConstraint=eastwest;newEdgeStyle={&quot;curved&quot;:0,&quot;rounded&quot;:0};" vertex="1" parent="1">
          <mxGeometry x="235" y="687" width="10" height="40" as="geometry" />
        </mxCell>
        <mxCell id="Iorur7sbH_eFIdstVS2S-60" value="Asks to continue" style="edgeStyle=orthogonalEdgeStyle;rounded=0;orthogonalLoop=1;jettySize=auto;html=1;curved=0;" edge="1" parent="1">
          <mxGeometry relative="1" as="geometry">
            <mxPoint x="669.5" y="687" as="sourcePoint" />
            <mxPoint x="239.5" y="687" as="targetPoint" />
          </mxGeometry>
        </mxCell>
        <mxCell id="Iorur7sbH_eFIdstVS2S-62" value="Asks to play" style="edgeStyle=orthogonalEdgeStyle;rounded=0;orthogonalLoop=1;jettySize=auto;html=1;curved=0;" edge="1" parent="1">
          <mxGeometry relative="1" as="geometry">
            <mxPoint x="239.5" y="771" as="sourcePoint" />
            <mxPoint x="379.5" y="771" as="targetPoint" />
          </mxGeometry>
        </mxCell>
        <mxCell id="Iorur7sbH_eFIdstVS2S-63" value="set_winner" style="edgeStyle=orthogonalEdgeStyle;rounded=0;orthogonalLoop=1;jettySize=auto;html=1;curved=0;" edge="1" parent="1">
          <mxGeometry relative="1" as="geometry">
            <mxPoint x="239.5" y="937" as="sourcePoint" />
            <mxPoint x="819.5" y="937" as="targetPoint" />
          </mxGeometry>
        </mxCell>
        <mxCell id="Iorur7sbH_eFIdstVS2S-64" value="" style="html=1;points=[[0,0,0,0,5],[0,1,0,0,-5],[1,0,0,0,5],[1,1,0,0,-5]];perimeter=orthogonalPerimeter;outlineConnect=0;targetShapes=umlLifeline;portConstraint=eastwest;newEdgeStyle={&quot;curved&quot;:0,&quot;rounded&quot;:0};" vertex="1" parent="1">
          <mxGeometry x="235" y="897" width="10" height="40" as="geometry" />
        </mxCell>
        <mxCell id="Iorur7sbH_eFIdstVS2S-65" value="set_play" style="edgeStyle=orthogonalEdgeStyle;rounded=0;orthogonalLoop=1;jettySize=auto;html=1;curved=0;" edge="1" parent="1">
          <mxGeometry relative="1" as="geometry">
            <mxPoint x="379.5" y="772" as="sourcePoint" />
            <mxPoint x="819.5" y="772" as="targetPoint" />
          </mxGeometry>
        </mxCell>
        <mxCell id="Iorur7sbH_eFIdstVS2S-66" value="Asks to play" style="edgeStyle=orthogonalEdgeStyle;rounded=0;orthogonalLoop=1;jettySize=auto;html=1;curved=0;" edge="1" parent="1">
          <mxGeometry relative="1" as="geometry">
            <mxPoint x="379.5" y="817" as="sourcePoint" />
            <mxPoint x="519.5" y="817" as="targetPoint" />
            <mxPoint as="offset" />
          </mxGeometry>
        </mxCell>
        <mxCell id="Iorur7sbH_eFIdstVS2S-67" value="" style="html=1;points=[[0,0,0,0,5],[0,1,0,0,-5],[1,0,0,0,5],[1,1,0,0,-5]];perimeter=orthogonalPerimeter;outlineConnect=0;targetShapes=umlLifeline;portConstraint=eastwest;newEdgeStyle={&quot;curved&quot;:0,&quot;rounded&quot;:0};" vertex="1" parent="1">
          <mxGeometry x="375" y="771" width="10" height="46" as="geometry" />
        </mxCell>
        <mxCell id="Iorur7sbH_eFIdstVS2S-68" value="set_play" style="edgeStyle=orthogonalEdgeStyle;rounded=0;orthogonalLoop=1;jettySize=auto;html=1;curved=0;" edge="1" parent="1">
          <mxGeometry relative="1" as="geometry">
            <mxPoint x="519.5" y="818" as="sourcePoint" />
            <mxPoint x="819.5" y="818" as="targetPoint" />
          </mxGeometry>
        </mxCell>
        <mxCell id="Iorur7sbH_eFIdstVS2S-69" value="Asks to play" style="edgeStyle=orthogonalEdgeStyle;rounded=0;orthogonalLoop=1;jettySize=auto;html=1;curved=0;" edge="1" parent="1">
          <mxGeometry relative="1" as="geometry">
            <mxPoint x="519.5" y="857" as="sourcePoint" />
            <mxPoint x="669.5" y="857" as="targetPoint" />
          </mxGeometry>
        </mxCell>
        <mxCell id="Iorur7sbH_eFIdstVS2S-70" value="" style="html=1;points=[[0,0,0,0,5],[0,1,0,0,-5],[1,0,0,0,5],[1,1,0,0,-5]];perimeter=orthogonalPerimeter;outlineConnect=0;targetShapes=umlLifeline;portConstraint=eastwest;newEdgeStyle={&quot;curved&quot;:0,&quot;rounded&quot;:0};" vertex="1" parent="1">
          <mxGeometry x="515" y="817" width="10" height="40" as="geometry" />
        </mxCell>
        <mxCell id="Iorur7sbH_eFIdstVS2S-71" value="set_play" style="edgeStyle=orthogonalEdgeStyle;rounded=0;orthogonalLoop=1;jettySize=auto;html=1;curved=0;" edge="1" parent="1">
          <mxGeometry relative="1" as="geometry">
            <mxPoint x="669.5" y="857" as="sourcePoint" />
            <mxPoint x="819.5" y="857" as="targetPoint" />
          </mxGeometry>
        </mxCell>
        <mxCell id="Iorur7sbH_eFIdstVS2S-72" value="Asks to define winner" style="edgeStyle=orthogonalEdgeStyle;rounded=0;orthogonalLoop=1;jettySize=auto;html=1;curved=0;" edge="1" parent="1">
          <mxGeometry relative="1" as="geometry">
            <mxPoint x="669.5" y="897" as="sourcePoint" />
            <mxPoint x="239.5" y="897" as="targetPoint" />
          </mxGeometry>
        </mxCell>
        <mxCell id="Iorur7sbH_eFIdstVS2S-73" value="" style="html=1;points=[[0,0,0,0,5],[0,1,0,0,-5],[1,0,0,0,5],[1,1,0,0,-5]];perimeter=orthogonalPerimeter;outlineConnect=0;targetShapes=umlLifeline;portConstraint=eastwest;newEdgeStyle={&quot;curved&quot;:0,&quot;rounded&quot;:0};" vertex="1" parent="1">
          <mxGeometry x="665" y="857" width="10" height="40" as="geometry" />
        </mxCell>
        <mxCell id="Iorur7sbH_eFIdstVS2S-74" value="&lt;div&gt;draw(type)&lt;br&gt;&lt;/div&gt;&lt;div align=&quot;left&quot;&gt;&lt;ol&gt;&lt;li&gt;Draws any of type:&lt;/li&gt;&lt;ol&gt;&lt;li&gt;turn&lt;/li&gt;&lt;li&gt;river&lt;br&gt;&lt;/li&gt;&lt;/ol&gt;&lt;/ol&gt;&lt;/div&gt;" style="text;html=1;align=center;verticalAlign=middle;whiteSpace=wrap;rounded=0;" vertex="1" parent="1">
          <mxGeometry x="-25" y="557" width="140" height="30" as="geometry" />
        </mxCell>
        <mxCell id="Iorur7sbH_eFIdstVS2S-75" value="&lt;div&gt;set_winner&lt;br&gt;&lt;/div&gt;&lt;div align=&quot;left&quot;&gt;&lt;ol&gt;&lt;li&gt;Sets the winner of the game&lt;br&gt;&lt;/li&gt;&lt;ol&gt;&lt;/ol&gt;&lt;/ol&gt;&lt;/div&gt;" style="text;html=1;align=center;verticalAlign=middle;whiteSpace=wrap;rounded=0;" vertex="1" parent="1">
          <mxGeometry x="-30" y="657" width="140" height="30" as="geometry" />
        </mxCell>
      </root>
    </mxGraphModel>
  </diagram>
</mxfile>
